<?xml version="1.0" encoding="UTF-8"?>
<svg id="Ebene_1" data-name="Ebene 1" xmlns="http://www.w3.org/2000/svg" version="1.1" viewBox="0 0 890 100">
  <defs>
    <style>
      .cls-1 {
        fill: #ff79c9;
        stroke-width: 0px;
      }
    </style>
  </defs>
  <path class="cls-1" d="M0,50C0,13.2,16.4,0,62.5,0s36.4,1.1,59,4.2l1.7,39.2c.2-.7-82.2-14-82.2-14v41.2s85.1-15.4,83.8-15.1l-1.5,39.9c-23.5,3.1-39,4.6-60.8,4.6C16.4,100,0,86.8,0,50Z"/>
  <path class="cls-1" d="M302.2,50c0-36.8,16.4-50,62.5-50s36.4,1.1,59,4.2l1.7,39.2c.2-.7-82.2-14-82.2-14v41.2s85.1-15.4,83.8-15.1l-1.5,39.9c-23.5,3.1-39,4.6-60.8,4.6-46.1,0-62.5-13.2-62.5-50Z"/>
  <path class="cls-1" d="M604.4,50c0-36.8,16.4-50,62.5-50s36.4,1.1,59,4.2l1.7,39.2c.2-.7-82.2-14-82.2-14v41.2s85.1-15.4,83.8-15.1l-1.5,39.9c-23.5,3.1-39,4.6-60.8,4.6-46.1,0-62.5-13.2-62.5-50Z"/>
  <path class="cls-1" d="M140.4,50C140.4,12.5,160.1,0,213,0s72.6,12.5,72.6,50-19.7,50-72.6,50-72.6-12.5-72.6-50ZM244.7,68.8V31.2h-63.2v37.5h63.2Z"/>
  <path class="cls-1" d="M442.6,50c0-37.5,19.7-50,72.6-50s72.6,12.5,72.6,50-19.7,50-72.6,50-72.6-12.5-72.6-50ZM546.8,68.8V31.2h-63.2v37.5h63.2Z"/>
  <path class="cls-1" d="M744.8,50c0-37.5,19.7-50,72.6-50s72.6,12.5,72.6,50-19.7,50-72.6,50-72.6-12.5-72.6-50ZM849,68.8V31.2h-63.2v37.5h63.2Z"/>
</svg>